<svg width="49" height="48" viewBox="0 0 49 48" fill="none" xmlns="http://www.w3.org/2000/svg">
<path d="M8 5.5C7.46957 5.5 6.96086 5.71071 6.58579 6.08579C6.21071 6.46086 6 6.96957 6 7.5V40.5C6 41.0304 6.21071 41.5391 6.58579 41.9142C6.96086 42.2893 7.46957 42.5 8 42.5H41C41.5304 42.5 42.0391 42.2893 42.4142 41.9142C42.7893 41.5391 43 41.0304 43 40.5V7.5C43 6.96957 42.7893 6.46086 42.4142 6.08579C42.0391 5.71071 41.5304 5.5 41 5.5H8Z" stroke="#015AF6" stroke-width="4" stroke-linecap="round" stroke-linejoin="round"/>
<path d="M34.505 29.651C34.1747 30.2305 33.6968 30.7122 33.12 31.0471C32.5432 31.3821 31.888 31.5583 31.221 31.558C30.2187 31.558 29.2573 31.1599 28.5485 30.4512C27.8396 29.7426 27.4413 28.7814 27.441 27.779V25.323C27.441 24.3205 27.8392 23.359 28.5481 22.6502C29.257 21.9413 30.2185 21.543 31.221 21.543C32.2233 21.5433 33.1845 21.9416 33.8932 22.6505C34.6019 23.3594 35 24.3207 35 25.323V26.551H27.442M20.236 24C21.2277 24.0161 22.1734 24.4214 22.869 25.1285C23.5647 25.8355 23.9545 26.7876 23.9545 27.7795C23.9545 28.7714 23.5647 29.7235 22.869 30.4306C22.1734 31.1376 21.2277 31.5429 20.236 31.559H14V16.442H20.236C21.2232 16.4647 22.1623 16.8728 22.8525 17.5791C23.5426 18.2853 23.9291 19.2336 23.9291 20.221C23.9291 21.2085 23.5426 22.1567 22.8525 22.863C22.1623 23.5692 21.2232 23.9773 20.236 24ZM20.236 24H14M27.442 16.442H35" stroke="#015AF6" stroke-width="2" stroke-linecap="round" stroke-linejoin="round"/>
</svg>
